<svg xmlns="http://www.w3.org/2000/svg" width="208" height="42" viewBox="0 0 208 42"><g><g><g><path fill="#e7a519" d="M22.483 18.53c.034-.185-.41-1.622-.585-2.081-.173-.453-2.996-4.606-1.533-7.777.369-.798 1.297-1.351 2.405-1.72 1.586-.53 2.932.503 3.882 1.536.303-.061.651.307.798-.222-.08-.433-.174-.638-.435-.969-.506-.64-2.313-2.19-4.402-1.861-.627.098-1.505.344-2.171.948-3.07 3.136-2.208 5.859-1.47 7.395a28.511 28.511 0 0 1 1.886 5.13s-.048.265.615 0c.532-.212 1.01-.379 1.01-.379z"/></g><g><path fill="#004799" d="M31.603 19.944c-.16-.21-.744.296-.902.364-.18.077-.294.135-.395.332-.148.287-.31.377-.397.665-.268.903-.003 4.379-1.676 4.104-.242-.037-.788-.335-.857-.609-.093-.364-.405-1.905-.355-2.355.05-.445.022-1.145.297-1.507-.11-.432-.216-.293-.543-.38-.291-.076-.798.35-.929.577-.222.383-.228.931-.276 1.358-.058.512-.153 1.017-.241 1.525-.116.66-.31 1.372-1.124 1.405-.332.017-.816-.26-1.036-.501 0 0-.026-.926-.058-1.353-.063-.823-.166-3.187-.203-3.752-.048-.752-.634-.54-.644-.532-.239.194-.918.357-1.05.652-.244.538-.062.785.012 1.145l.179 1.276c.228 2.211.176 2.54-.13 5.613-.22 2.187-1.16 3.515-2.52 5.236-1.76 1.78-4.006 1.736-6.176.846-3.094-1.27-2.733-4.767-2.405-5.38.693-1.294-1.482-1.737-1.302-.953.149.648-.194 1.642-.17 2.46.122 4.001 2.578 5.076 5.59 5.945 1.35.392 3.637-.317 4.545-.77 2.022-1.004 2.788-3.14 3.508-4.981.452-1.158.692-2.706.777-4.18.215.063.507.11.7.137 1.28.173 1.95-.26 2.475-1.422.226.402.415.876.819 1.133.507.321 1.059.256 1.625.311 1.011.101 1.555-1.012 1.841-1.8 0 0 .819-3.149.968-3.768.068-.286.215-.627.053-.84z"/></g><g><path fill="#e7a519" d="M59.39 20.14c-.013-.613-.712-1.947-.957-2.415-.24-.463-3.393-3.942-2.089-7.473.33-.889 1.31-1.58 2.511-2.094 1.718-.737 3.332.213 4.505 1.206.332-.099.758.255.868-.325-.134-.45-.26-.657-.589-.98-.632-.626-2.816-2.073-5.119-1.495-.69.175-1.646.533-2.33 1.248-3.106 3.671-1.856 6.47-.87 8.022 1.017 1.598 1.507 2.492 2.2 4.32 0 0 .555.953 1.17.444.487-.405.7-.459.7-.459z"/></g><g><path fill="#e7a519" d="M61.205 24.903c-.132-.7-.689-2.745-.772-3.228-.112-.641-.66-.403-.669-.396-.214.19-.858.394-.961.661-.19.486.007.681.109.984l.28 1.08c.41 1.88.387 2.169.35 4.84-.026 1.903-.822 3.133-1.993 4.743-1.553 1.7-3.729 1.876-5.904 1.318-3.1-.798-2.886-3.9-2.782-4.4.258-1.246-1.31-1.39-1.34-.695-.024.538-.05 1.431.044 2.133.456 3.429 2.924 4.12 5.91 4.58 1.34.208 3.493-.62 4.334-1.095 1.87-1.057 2.649-2.988 3.204-4.637.676-2.009.38-4.89.19-5.888z"/></g><g><path fill="#227667" d="M28.856 3.464c.074.046.568.322.5.334.995.177 2.926 1.48 2.943 1.554 1.222.52 2.248 1.713 3.332 2.555.802 1.011 1.543 2.085 2.332 3.11.235.669.75 1.654 1.11 2.22.175 1.25.965 3.18 1.11 4.776.789 3.36.879 6.756-.22 10.55-1.8 4.192-4.746 7.743-9.163 9.383-.709.263-1.368.573-2.108.76a17.14 17.14 0 0 1-1.125.244c-.25.047-1.344.406-1.603.28-1.255.349-2.558.217-3.827.493-3.161-.096-5.566-.66-8.163-1.333-.569-.147-2.28-.894-2.442-.943-2.688-1.393-5.167-2.942-7.053-5.22-1.916-2.316-3.334-5.263-2.826-8.765-.03-.098.021-.627-.06-.674.208-2.88 1.407-5.775 2.33-8.107 2.751-5.668 6.315-10.309 11.885-12.66 3.14-.96 6.078-.387 7.662-.111 1.123.23 4.012 1.035 4.108 1.055.01.001 1.044.355 1.278.5zm13.078 13.11c.031 0-.409-1.672-.602-2.354-.42-1.48-1.027-2.8-1.642-3.996-.314-.61-.745-1.194-1.149-1.752-2.188-3.024-5.68-5.342-9.416-6.732-2.01-.458-3.97-1.216-6.185-1.533-1.101-.158-2.779-.165-4.215-.274-.462-.035-3.036.274-3.394.383-.383.117-2.693.728-3.94 1.752C6.03 6.285 2.518 11.87.496 19.147c-.95 3.566-.471 8.045.875 11.001.56.916 1.083 1.868 1.698 2.737.909 1.284 1.957 2.275 3.12 3.23 2.168 1.783 4.667 3.118 7.553 4.051.486.156.945.418 1.424.547.794.214 1.603.206 2.299.548 2.493.42 5.177.59 7.828.273 4.6-.552 8.827-1.818 11.714-4.27.356-.46.971-.883 1.205-1.15.39-.483.882-.868 1.15-1.477 2.132-2.705 3.556-6.333 3.556-10.62.002-2.72-.407-5.037-.985-7.443z"/></g><g><path fill="#e7a519" d="M88.954 18.38c.026.294.21.759.268 1.313.761-1.319 2.665-2.182 4.128-.907.678.592 1.026 1.758 1.31 2.707.495 1.645.819 4.414.861 5.838.01.36-.15.708-.389.955-.812.054-1.262.148-1.65-.3-.349-2.474-.443-8.06-1.624-7.947-1.321.692-1.97 1.964-2.375 3.591-.034.134.11.534.085.677-.049.27-.11.536-.135.791-.096.939.179 1.9-.08 2.84-.49.336-1.529.347-1.925-.17-.095-.122-.178-.593-.211-1.085-.125-1.89-.395-4.587-.285-7.054.028-.637.2-1.326.645-1.516.545-.054 1.131.117 1.377.267z"/></g><g><path fill="#e7a519" d="M68.475 19.533c1.171.043 2.554.8 2.549 2.285-2.013-.09-3.897.363-6.01.202.086-1.128 1.355-1.973 2.448-2.232.348-.081.596-.27 1.013-.255zm4.422 3.663c.21-.095.208-.565.14-.742-.062-.167-.08-.264-.118-.44-.052-.231-.145-.45-.228-.67a4.359 4.359 0 0 0-.506-.95c-.416-.606-1.53-1.471-1.52-1.48-.273-.183-.702-.26-1.018-.366-.307-.103-.627-.241-.946-.302-1.254-.24-2.615-.05-3.732.58-.498.282-.935.66-1.258 1.134-.151.22-.274.457-.38.701-.06.134-.274 1.057-.386 1.122-.291.169-.304.533-.266.864.064.56.32.446.432.833.118.41.138.464.282.866.077.213.266.496.406.738.378.648.556.977 1.09 1.491.702.676 1.798 1.393 2.804 1.631 1.755.416 2.731-.123 3.97-.461.121-.034.384-.419.507-.515.195-.152.404-.282.61-.417.133-.088.444-.228.498-.388.055-.166.1-.77.124-.998.028-.269-.188-.217-.266-.425-1.787.528-2.908 2.16-5.202 1.782-1.418-.234-2.385-2.027-2.773-3.321 2.287.3 3.926-.189 5.9-.208.688-.007 1.406.134 1.836-.06z"/></g><g><path fill="#e7a519" d="M83.121 21.681c-2.034-.103-4.022.34-6.156.162.096-1.157 1.274-2.155 2.38-2.414a4.135 4.135 0 0 1 1.137-.115c1.183.051 2.654.846 2.64 2.367zm1.8 1.417c.235-.131.112-.824.15-.93-.154-1.508-1.583-3.238-1.966-3.499-2.862-1.87-7.698.072-8.142 3.044-.385.223-.289.962-.218 1.405.402.303.333.429.564 1.101.076.22.12.689.262.938.377.666.489 1.096 1.024 1.627.703.697 1.994 1.285 3.03 1.422 3.497.462 4.72-1.047 5.184-1.462.114-.136.876.05.127-1.202-.072-.118-.123-.277-.265-.278-1.81.53-2.487 1.934-4.792 1.484-2.321-.453-2.929-2.146-2.776-3.423 2.308.321 3.968-.17 5.962-.178.697-.003 1.422.146 1.857-.049z"/></g><g><path fill="#e7a519" d="M99.964 21.507c.795-.505.932-1.098 2.235-1.172.262.409.007.635-.068 1.024-.184.947-.015 1.837.084 2.678.14 1.193-1.497 2.867-2.931 2.302-1.012-1.226-.253-3.29.392-4.437.16-.164.16-.164.288-.395zm7.32 3.9c-.91.778-2.64-.108-2.968-.949-.377-.972.133-2.24-.42-3.08.197-1.05-.331-1.898-1.113-2.346-.086-.05-.073.034-.178-.026-.168-.097-.16-.136-.39-.208-1.71-.548-3.128.476-4.06 1.663-1.998 2.54-2.093 7.017 1.68 7.707 1.914.35 2.896-.555 3.664-1.726.935.836 2.367 1.524 3.722.976.69-.593.317-1.312.063-2.01z"/></g><g><path fill="#e7a519" d="M110.88 24.536c-.186 1.106 1.51 2.67.384 3.708-1.849.106-2.118-.169-2.329-1.652-.092-.644-.111-1.568-.223-2.334-.104-.73-.443-1.71-.388-2.667.041-.724.126-1.277.667-1.502.221.058.462.354.706.387.592-.953 1.807-2.444 3.24-2.22.126.02 1.065.454 1.222.5.302.239.603.323.448.767-.147.257-.08.535-.36.614-.337-.087-1.082-.275-1.375-.127-1.184.6-2.561 1.08-2.269 3.47.009.065.126 1.06.278 1.056z"/></g><g><path fill="#e7a519" d="M124.344 20.837c.043-.009-.019.467-.074.65-.082.723-.235 1.267-.114 1.993.013.08.014.21.04.287.018.051.004.198.002.25-.073.969.36 2.25.413 3.165.005.088.06 2.907-.065 3.817.006.317-.244.946-.22 1.113-.432 1.057-.363 2.027-.896 2.775-.054.155-.007.149-.094.325-.245.27-.485.682-.67 1.148-1.04 1.35-2.43 3.138-4.754 3.149-1.12.005-2.404-.649-2.724-1.814-.034-.112-.606-1.94-.529-3.113.208-.026.501-.033.757.016.31.064.66 1.144.687 1.596.063.068-.017.285.088.39.142.499.691 1.212 1.06 1.281 1.109.197 1.713-.452 2.383-.74 2.591-1.936 3.582-6.81 2.833-10.942-.545.842-1.506 1.645-2.82 1.441-2.586-.4-4.188-3.5-3.815-6.132.021-.1.206-1.581.653-1.936.513-.032.963.247 1.153.56.228.374.522.612.389 1.31-.109.565-.267.996-.242 1.561.03.63.197 1.096.383 1.423.116.645.547 1.004 1.005 1.338.25.04.422-.008.62-.027 1.184-.273 1.8-.854 2.102-2.93.086-.603.011-1.276-.023-1.916-.035-.66-.317-2.517.303-2.936.697.022 1.474.234 1.986.74.06.06.1.584.183.69.003.236.043.302-.011.554-.027.424.004.49.01.914z"/></g><g><path fill="#e7a519" d="M129.468 25.253c-.112-.158-.36-.209-.557-.65.05-.104-.245-.495-.256-.588-.26-.94-.238-2.09.01-3.043.456-.995 3.415-1.571 4.687-.336.224.174.317.48.41.582.248.584.415 1.446.27 2.28-.034.192-.19.275-.098.48-.818 1.937-3.201 3.069-4.466 1.275zm6.19-3.388c0-.004-.222-.51-.331-.778-.147-.36-.184-.849-.418-1.16-.625-.463-1.286-1.321-2.225-1.604-1.999-.601-3.934.087-5.301.824-.608.63-1.2 1.545-1.244 2.716-.032.898.121 1.808.462 2.5.246.31.207.36.619.337.21.893.76 1.548 1.195 2.173.942.76 2.7 1.77 4.188 1.386.43-.112.724-.384 1.075-.52.173-.11 1.648-1.905 1.804-2.32.017-.202.144-.518.108-.525.075-.54.26-1.037.276-1.594a4.297 4.297 0 0 0-.207-1.435z"/></g><g><path fill="#004799" d="M164.784 20.945c.837-.552.981-1.2 2.352-1.282.275.447.007.695-.072 1.121-.194 1.037-.015 2.011.089 2.932.148 1.305-1.576 3.139-3.084 2.52-1.065-1.342-.267-3.602.412-4.858.167-.178.167-.178.303-.433zm7.702 4.271c-.956.851-2.778-.119-3.122-1.039-.398-1.064.14-2.454-.443-3.372.208-1.149-.348-2.078-1.17-2.568-.09-.054-.077.037-.188-.029-.176-.107-.168-.148-.41-.228-1.8-.6-3.291.522-4.273 1.821-2.102 2.78-2.202 7.682 1.768 8.437 2.015.383 3.048-.606 3.855-1.89.986.916 2.492 1.669 3.918 1.07.724-.65.334-1.437.065-2.202z"/><path fill="none" stroke="#004799" stroke-miterlimit="50" stroke-width=".67" d="M164.784 20.945c.837-.552.981-1.2 2.352-1.282.275.447.007.695-.072 1.121-.194 1.037-.015 2.011.089 2.932.148 1.305-1.576 3.139-3.084 2.52-1.065-1.342-.267-3.602.412-4.858.167-.178.167-.178.303-.433zm7.702 4.271c-.956.851-2.778-.119-3.122-1.039-.398-1.064.14-2.454-.443-3.372.208-1.149-.348-2.078-1.17-2.568-.09-.054-.077.037-.188-.029-.176-.107-.168-.148-.41-.228-1.8-.6-3.291.522-4.273 1.821-2.102 2.78-2.202 7.682 1.768 8.437 2.015.383 3.048-.606 3.855-1.89.986.916 2.492 1.669 3.918 1.07.724-.65.334-1.437.065-2.202z"/></g><g><path fill="#004799" d="M181.204 20.721c.041-.009-.017.46-.07.641-.078.712-.222 1.248-.108 1.964.013.079.013.207.038.282.017.051.005.196.001.247-.067.954.342 2.218.393 3.12.004.086.056 2.865-.062 3.76.006.314-.231.933-.21 1.098-.407 1.04-.343 1.998-.848 2.734-.05.154-.007.148-.088.32-.233.268-.46.674-.635 1.133-.986 1.33-2.303 3.093-4.505 3.103-1.061.005-2.276-.64-2.58-1.787-.03-.111-.573-1.912-.501-3.07.197-.025.476-.031.718.017.292.063.624 1.128.65 1.573.06.067-.016.281.084.384.133.49.655 1.194 1.004 1.264 1.05.193 1.624-.446 2.257-.73 2.456-1.909 3.394-6.712 2.684-10.784-.516.83-1.426 1.621-2.67 1.42-2.45-.394-3.969-3.45-3.614-6.044.018-.098.194-1.558.617-1.908.486-.031.912.243 1.092.552.216.37.495.604.369 1.291-.102.556-.253.983-.229 1.54.027.62.187 1.08.363 1.4.11.637.518.991.952 1.32.237.04.398-.009.587-.027 1.122-.268 1.706-.841 1.991-2.887.081-.594.01-1.259-.021-1.889-.033-.65-.3-2.48.287-2.893.66.022 1.396.23 1.88.73.058.059.096.575.175.678.002.234.04.299-.012.547-.024.418.005.482.011.901z"/><path fill="none" stroke="#004799" stroke-miterlimit="50" stroke-width=".9" d="M181.204 20.721c.041-.009-.017.46-.07.641-.078.712-.222 1.248-.108 1.964.013.079.013.207.038.282.017.051.005.196.001.247-.067.954.342 2.218.393 3.12.004.086.056 2.865-.062 3.76.006.314-.231.933-.21 1.098-.407 1.04-.343 1.998-.848 2.734-.05.154-.007.148-.088.32-.233.268-.46.674-.635 1.133-.986 1.33-2.303 3.093-4.505 3.103-1.061.005-2.276-.64-2.58-1.787-.03-.111-.573-1.912-.501-3.07.197-.025.476-.031.718.017.292.063.624 1.128.65 1.573.06.067-.016.281.084.384.133.49.655 1.194 1.004 1.264 1.05.193 1.624-.446 2.257-.73 2.456-1.909 3.394-6.712 2.684-10.784-.516.83-1.426 1.621-2.67 1.42-2.45-.394-3.969-3.45-3.614-6.044.018-.098.194-1.558.617-1.908.486-.031.912.243 1.092.552.216.37.495.604.369 1.291-.102.556-.253.983-.229 1.54.027.62.187 1.08.363 1.4.11.637.518.991.952 1.32.237.04.398-.009.587-.027 1.122-.268 1.706-.841 1.991-2.887.081-.594.01-1.259-.021-1.889-.033-.65-.3-2.48.287-2.893.66.022 1.396.23 1.88.73.058.059.096.575.175.678.002.234.04.299-.012.547-.024.418.005.482.011.901z"/></g><g><g><path fill="#004799" d="M192.82 19.006a28.8 28.8 0 0 0-.044 5.242c.109 1.366.222 2.657 1.338 3.56 1.952 1.579 4.534.07 4.802-2.222.15-1.277-2.388-1.62-2.537-.348.004-.035-.313 1.449-.592 1.223-.502-.407-.434-1.808-.495-2.383-.166-1.571-.095-3.156.065-4.724.13-1.28-2.408-1.62-2.537-.348z"/></g></g><g><g><path fill="#004799" d="M195.04 16.268l.305-.23c.218-.167.37-.37.365-.657-.004-.285-.163-.546-.366-.735-.42-.39-1.262-.636-1.768-.253-.101.078-.203.155-.306.232-.218.164-.37.37-.365.656.005.285.163.546.366.736.421.391 1.26.633 1.768.251z"/></g></g><g><g><g><path fill="#004799" d="M199.998 10.186c-.542 5.09-1.419 11.086.327 16.048.488 1.388 1.778 2.648 3.37 2.453 2.14-.262 2.715-1.756 3.562-3.468.716-1.448-1-2.375-1.723-.916-.61 1.234-1.318 2.737-2.802 1.346-1.086-1.02-1.037-3.932-1.152-5.321-.285-3.492.152-7.042.522-10.51.18-1.696-1.963-.958-2.104.368z"/></g></g><g><g><path fill="#004799" d="M200.456 18.927c1.574-.303 3.175-.399 4.745-.724 1.202-.25 1.497-2.76.017-2.453-1.57.326-3.17.422-4.745.725-1.206.232-1.502 2.738-.017 2.452z"/></g></g></g><g><g><g><path fill="#004799" d="M183.747 8.355c0 6.63-.016 13.259-.131 19.888-.026 1.499 2.348.587 2.369-.634.115-6.63.131-13.258.131-19.888 0-1.503-2.37-.59-2.37.634z"/></g></g><g><g><path fill="#004799" d="M190.1 17.38c-1.454 1.818-3.327 3.128-5.232 4.435-1.012.695-.334 3.131.91 2.277 2.06-1.413 4.069-2.863 5.64-4.828.782-.978-.304-3.152-1.319-1.884z"/></g></g><g><g><path fill="#004799" d="M191.819 26.639c-2.027-1.277-3.66-3.093-5.277-4.837-1.104-1.191-2.022 1.06-1.172 1.978 1.744 1.882 3.528 3.822 5.714 5.2 1.273.8 1.77-1.689.735-2.341z"/></g></g></g><g><g><g><path fill="#004799" d="M142.202 7.951c.258 6.517 2.002 13.141.6 19.628-.297 1.383 2.513 1.821 2.815.421 1.44-6.671-.353-13.504-.618-20.204-.053-1.342-2.858-1.379-2.797.155z"/></g></g><g><g><path fill="#004799" d="M143.414 8.714c2.642-.498 6.02-.639 6.932 2.494 1.078 3.704-2.399 5.778-5.296 6.915-1.743.683-.33 2.443 1.165 1.857 4.05-1.588 7.937-4.493 6.915-9.36-.97-4.617-6.501-4.684-10.156-3.994-1.749.33-1.298 2.417.44 2.088z"/></g></g></g><g><g><path fill="#004799" d="M153.825 9.804c-.008 2.88-.093 5.76-.092 8.641.002 2.266-.082 4.673.503 6.88.384 1.446 1.285 2.945 2.907 3.135 1.639.193 3.38-.358 4.212-1.852.801-1.441-1.933-1.888-2.585-.716-.882 1.585-1.754-1.059-1.896-1.71-.293-1.345-.256-2.789-.298-4.157-.106-3.54.056-7.086.065-10.627.004-1.39-2.812-1.025-2.816.406z"/></g></g></g></g></svg>