<svg version="1.1" viewBox="0 0 2048 1224" width="208" height="42" xmlns="http://www.w3.org/2000/svg">
<path transform="translate(1190,471)" d="m0 0h129l2 7 19 126 6 40v5l9 1 2-21 17-151 2-7h125l2 1 5 329v61h-88v-252l-8-1-3 20-26 213-2 16-2 4h-60l-2-7-17-124-15-111-1-6-6-1-1 59-1 145-1 45h-85l-1-1v-389z" fill="#FDFDFD"/>
<path transform="translate(645,468)" d="m0 0h82l5 12 19 56 15 43 14 42 5 14v2h6v-78l1-90 1-1h81l1 1v389h-88l-7-22-38-130-6-20-7-1v172l-1 1h-84v-389z" fill="#FDFDFD"/>
<path transform="translate(476,463)" d="m0 0h29l20 3 17 5 15 6 16 9 10 8 10 10 7 11 6 13 4 15 2 13 2 29v173l-3 32-4 18-7 16-8 12-11 12-12 9-16 9-18 7-21 5-8 1h-23l-14-2-17-5-16-8-11-7-14-12-10-12-9-14-7-16-5-18-2-13-1-14-1-43v-92l1-48 1-17 3-18 6-18 8-15 8-10 10-10 14-9 14-7 21-6zm12 66-5 4-3 7-3 20v194l1 29 3 19 5 6 5 2h9l6-4 3-5 3-15 1-9 1-210-1-24-3-8-6-5-3-1z" fill="#FEFEFE"/>
<path transform="translate(911,471)" d="m0 0h175l1 1v73h-48l-28-1v82h24l40 1v72h-67v22l1 45v23h23l54 1 1 1v70l-33 1h-143l-1-1v-389z" fill="#FEFEFE"/>
<path transform="translate(1878,471)" d="m0 0h170v73l-73 1v77l13-1h52l1 70-1 1h-63v96h71v74h-170z" fill="#FEFEFE"/>
<path transform="translate(1684,470)" d="m0 0h53l46 1v324h65v71h-164z" fill="#FEFEFE"/>
<path transform="translate(1545,470)" d="m0 0h95l1 394-7 1h-89l-1-1v-393z" fill="#FEFEFE"/>
<path transform="translate(39,421)" d="m0 0h51l102 1 4 1-6 40-11 53-4 28-1 16 3 7 7 6 14 4 55 8 32 7 16 5 1 2-68-2-204-4-27-1v-19l2-25 5-34 8-35 11-35 8-21z" fill="#86090F"/>
<path transform="translate(523,13)" d="m0 0h9l13 19 8 11 11 16 13 21 8 16v3l-4-1-16-8-15-4h-28l-24 5-26 8-27 11-25 12-23 13-21 14-19 14-13 11-11 9-15 14-3 1-1 3-15-6-36-17-20-9-24-11 14-14 11-9 13-11 20-15 27-18 15-9 16-9 21-11 29-13 27-10 31-10 32-8 34-6z" fill="#EB2628"/>
<path transform="translate(3,634)" d="m0 0h73l123 1h99v2l-51 11-56 11-41 8-15 4-10 5-8 7-5 11-1 6v17l4 35 12 60 3 13v16l-4 10-7 9-9 6-12 3h-13l-13-4-11-8-9-11-12-23-11-28-9-28-7-30-4-23-4-37-2-28z" fill="#FEFEFE"/>
<path transform="translate(192,181)" d="m0 0 5 1 39 18 46 23 18 10 7 4-4 1h-22l-14 4-11 7-10 9-9 11-12 15-8 12-13 20-14 24-13 24-3 7v11l5 8 5 4 4 3h-54l-88-1 3-10 13-31 17-34 13-22 16-24 10-14 11-14 9-11 9-10 7-8 8-8 7-8 13-12z" fill="#CA0F19"/>
<path transform="translate(625,123)" d="m0 0h45l34 3 25 4 19 5 6 4v2l-13 4-21 3-61 3-33 3-33 5-36 9-30 10-29 12-27 13-20 12-12 8-14 10-14 11-13 11-11 10-11 9-9 9-8 7-25 25-11 14-14 18-13 20-10 14-9 9-11 7-13 4h-16l-11-4-6-5-1-7 6-12 7-10 10-16 13-18 10-13 11-13 9-11 15-16 21-21 8-7 14-12 10-8 19-14 24-16 20-12 29-15 19-9 34-13 28-9 32-8 27-5 25-3z" fill="#989694"/>
<path transform="translate(967,7)" d="m0 0h3l-2 4-14 12-11 10-8 7-24 22-14 13-8 7-7 7-8 7-12 11-10 9-13 12-8 7-7 7-8 7-9 9-8 7-14 14-8 7-20 20-8 7-26 26-8 7-29 29-7 8-10 10-6 10-2 5-1 13 1 9v10l-3 18-5 12-7 11-11 10-13 8-13 4h-18l-11-4-14-8-9-1-10 3-11 7-26 26-9 5-4 1h-9l-6-3-5-8v-10l5-8 11-10 8-7 9-9 8-7 10-12 2-5v-36l3-12 7-13 9-9 13-8 16-5 6-1h22l15 4h11l10-4 11-9 16-13 9-7 70-55 16-13 13-10 17-14 10-8 16-13 13-11 11-9 11-10 8-7 11-10 8-7 10-9 13-10 17-13 18-14 19-14zm-375 283-13 3-10 6-9 8-5 8-4 16v11l3 12 4 8 10 10 8 5 13 4h9l11-3 12-6 10-9 7-8 4-8 2-8v-11l-3-13-7-13-8-7-10-4-6-1z" fill="#870A10"/>
<path transform="translate(629,3)" d="m0 0h60l34 3 33 5 36 8 24 7 20 7 19 9 8 6 2 3-1 6-14 15-30 30-7 9h-1l-2-9-5-8-9-7-15-7-23-7-22-4-20-2h-51l-19 2-16 4-8 4-4 7-3 9-4-2-10-16-13-24-12-21-10-17v-3l37-5z" fill="#EB2729"/>
<path transform="translate(223,859)" d="m0 0 2 1-17 14-16 16-11 14-6 9-3 8v14l5 14 9 15 13 16 8 10 11 12 18 18 8 7 15 13 8 7 5 6 3 8 1 10-2 8-4 6-8 7-10 4h-15l-14-7-11-9-13-13-8-7-50-50-7-8-11-13-12-16-14-19-14-20-4-7 34-16 30-14 38-18 32-15z" fill="#FEFEFE"/>
<path transform="translate(415,982)" d="m0 0 1 3-12 34-8 26-7 29-4 23-1 8v13l4 9 7 8 10 7 23 11 20 6 44 9 27 5 16 3 8 6 4 6 1 3v8l-3 6-7 6-5 2h-21l-36-5-30-6-30-8-20-7-18-8-22-11-24-14-15-9-15-10v-3l14-19 10-13 12-16 16-21 21-28 16-21 14-19z" fill="#FEFEFE"/>
<path transform="translate(89,421)" d="m0 0 103 1 4 1-6 40-11 53-4 28-1 16 3 7 7 6 14 4 55 8 32 7 16 5 1 2-68-2-53-1-21-1-9-1 2-1v-3h2v-8h-2l-2-6-8-10-3-2-6-11-9-11-5-10-7-10-6-17-3-6-3-9-3-7-4-16-7-20-2-7v-5h2l-3-9 3-3h2z" fill="#EB2628"/>
<path transform="translate(1157,891)" d="m0 0h2l-1 5-9 19-16 27-18 27-10 14-10 13-13 16-11 13-15 16-25 25-8 7-14 12-14 11-19 14-18 12-18 11-25 14-22 11-28 12-10 4h-3l-6-32-11-64-1-6 5 2 16 12 19 14 11 8 8 4 8 2 11-1 10-4 14-8 20-14 18-13 19-14 17-13 10-9 4-8 3-14v-11l-2-14 8 1h17l13-4 14-8 10-8 10-9 7-7 22-28 8-10 11-13 9-11z" fill="#030304"/>
<path transform="translate(359,61)" d="m0 0 2 1 10-1 4 2 3 9-1 2h2l2 12 2 10v7h-2v5l2 2-1 15-2 4 1 5-6 9-6 7-3 3-1 4-14 11-13 11-8 7-10 9-3 3h-2l-1 3-15-6-36-17-20-9-24-11 14-14 11-9 13-11 20-15 27-18 15-9 16-9 21-11z" fill="#A10E12"/>
<path transform="translate(925,84)" d="m0 0 10 1 13 5 15 8 19 13 19 14 13 10 16 13 13 12 10 9 10 10 7 8 11 13 10 14 11 17 11 19 14 27 14 30 3 9-5-5-9-12-11-14-10-11-7-8-14-15-8-8-8-7-12-11-11-9-18-14-20-14-17-11-21-12-27-14-29-13-36-13 1-4 8-7 18-18 11-9z" fill="#CA0F19"/>
<path transform="translate(603,1080)" d="m0 0 2 3 9 40 7 26 7 20 6 11 6 5 9 3 22 1 23-1 26-4 39-9 29-8 17-5h9l6 4 3 4v9l-4 7-10 5-33 11-30 8-36 7-38 5-25 2h-39l-30-2-1-1 1-10 22-119 2-11z" fill="#FEFEFE"/>
<path transform="translate(355,228)" d="m0 0h2l1 2 1 18 3 15 2 4 7 3 2 5-3 5-13 12-23 23-11 14-14 18-13 20-10 14-9 9-11 7-13 4h-16l-11-4-6-5-1-7 6-12 7-10 10-16 13-18 10-13 11-13 9-11 15-16 21-21 8-7 14-12 9-7z" fill="#252525"/>
<path transform="translate(872,166)" d="m0 0 13 1 18 6 29 13 23 12 18 12 12 9 10 8 12 11 18 18 11 14 11 15 12 20 8 16 8 19v8l-3 5-2 2-7 1-5-5-15-24-14-20-13-17-8-10-11-13-12-11-16-12-21-13-22-11-18-7-22-7-9-6-7-8-4-9-1-10 3-5z" fill="#989694"/>
<path transform="translate(39,421)" d="m0 0h49l1 2-4 4 2 4v4h-2l2 9 3 9 6 17 3 13 4 9 3 10 4 9 5 12 10 16 4 7 7 9 5 9 6 5 4 6 2 4v3h2l1 5-1 3h-2v3l7 1v1h-32l-14-2 1-8-3-9-3-4-4-13-8-16-6-10-5-7-6-12-8-13-12-18-1-3-3-1v-2l-6-3v-3l-5-2-8-5-6 1-3 1v2l-5 5-3 2 2-9 10-30 5-13z" fill="#CA0F19"/>
<path transform="translate(629,3)" d="m0 0h53v1h-5v6l4 10 2 6 4 10 3 4 4 13v3h2v2h2v6l10 1v1l-43 1-19 2-16 4-8 4-4 7-3 9-4-2-10-16-13-24-12-21-10-17v-3l37-5z" fill="#A20E12"/>
<path transform="translate(967,7)" d="m0 0h3l-2 4-14 12-11 10-8 7-24 22-14 13-8 7-7 7-8 7-12 11-10 9-13 12-8 7-7 7-8 7-9 9-8 7-14 14-8 7-20 20-8 7-26 26-8 7-29 29-7 8-5 4 1-5h2v-2l-3 1-1-6-8-6-6-5-5-5 14-11 10-8 70-55 16-13 13-10 17-14 10-8 16-13 13-11 11-9 11-10 8-7 11-10 8-7 10-9 13-10 17-13 18-14 19-14z" fill="#EB282A"/>
<path transform="translate(359,61)" d="m0 0 2 1 10-1 4 2 3 9-1 2h2l2 12 2 10v7h-2v5l2 2-1 15-2 4 1 5-6 9-6 7-3 3-1 4-14 11-13 11-8 7-10 9-2-1 1-6 4-5 1-2v-6l-1-2v-14l-1-4-1-44-3-10v-6l-8-2-3-4 24-14 25-13z" fill="#CA0F19"/>
<path transform="translate(245,208)" d="m0 0 9 1 28 14 18 10 7 4-4 1h-22l-14 4-11 7-10 9-9 11-12 15-8 12-13 20-3 4-6-1-5-5-2-6-2-1-3-14v-10l2-13 7-12 3-1 2-4 6-7h2v-2h2l2-4h2l2-4 4-2 2-4 10-10h2l2-5 3-4z" fill="#A10E12"/>
<path transform="translate(82,317)" d="m0 0 4 1 8 3 10 9 8 10 10 20 1 3h2l5 5 10 8 6 7 7 5 2 7h6v1h-115l3-10 13-31 17-34z" fill="#86090F"/>
<path transform="translate(33,463)" d="m0 0 6 1 11 7 4 5 5 4 12 18 7 11 12 21 6 10 10 19 5 15 4 6 1 6-2 7h5v1h-40v-1l9-1-2-3v-9l-11-28-7-11-8-11-7-8-10-11-11-7-5-2h-7l-7 3 1-9 5-20 7-8h2v-2z" fill="#A10E12"/>
<path transform="translate(925,84)" d="m0 0 10 1 13 5 15 8 3 5 1 4h2v2h2l5 10-5 6-5 4-7 8-6 7-3 3h-13l-25-11-31-11 1-4 8-7 18-18 11-9z" fill="#A10E12"/>
<path transform="translate(192,181)" d="m0 0 5 1 31 14v1h-10l-9 2-2 7-3 1-2 5-8 8-4 5-7 6-3 6h-2l-2 7-4 6-5 5-5 4h-2l-1 3h-2l-2 4-5 7h-5-3l-2-1-1-6-3-1-2-8h-2l-1 4-6 4-9 8-3 2-2 1-2-2 9-13 11-14 9-11 9-10 7-8 8-8 7-8 13-12z" fill="#EB2729"/>
<path transform="translate(998,232)" d="m0 0 4 1 23 23 11 14 11 15 12 20 8 16 8 19v8l-3 5-2 2-7 1-5-5-15-24-14-20-13-17-8-10-11-13-2-2 1-28z" fill="#262625"/>
<path transform="translate(629,3)" d="m0 0h53v1h-5v6l4 10 2 6 4 10 3 4 4 13v3h2v2h2v6l10 1v1l-43 1-22 2 1-4 6-3v-3l-3-3-5-13-6-12-9-15-6-4v-2l-5-1-6-3 4-2z" fill="#CA0F19"/>
<path transform="translate(280,107)" d="m0 0h2l2 5 3 2 1 21v13l-2 18-3 10-5 5-7 1-41-19-11-5 14-14 11-9 13-11 20-15z" fill="#87090F"/>
<path transform="translate(1073,192)" d="m0 0 5 4 11 15 13 20 11 19 14 27 14 30 3 9-5-5-9-12-11-14-10-11-7-8-14-15-8-8-8-7-12-11-11-9-12-9 4-1 3 1 2 2 6 3 3 3 7 1v-3h2v-8l8-6v-6z" fill="#EB2729"/>
<path transform="translate(82,317)" d="m0 0 4 1 8 3 10 9 8 10 10 20 1 3h2l5 5 10 8 6 7 7 5 2 7h6v1h-52v-1h7v-4h-2v-3h-2l-7-14-4-10-7-14-4-4v-2l-5-2-2-4-11-2 8-16z" fill="#A10E12"/>
<path transform="translate(653,260)" d="m0 0 7 2v2l10 8 5 5v3h2v2h-2l-1 6-8 9-5 11-3 13-5-3-4-1-2 6-2 14h-1l-3-19-8-16-7-6-10-4 2-1 2-6-1-2v-5l-1-3-4-1-4-2 1-2 10 3h11l10-4z" fill="#CA0F19"/>
<path transform="translate(270,220)" d="m0 0h6l26 14 5 4h-26l-14 4-11 7-10 9-9 11-12 15-8 12h-2l-2-4v-8l5-15 5-9 16-17 8-7 5-4 1-2h2l2-4 5-4z" fill="#880B11"/>
<path transform="translate(247,341)" d="m0 0h3l2 3 2 20v11l1 1 2 12 1 2v8l-5 3h-16l-11-4-6-5-1-7 6-12 7-10 10-16z" fill="#030304"/>
<path transform="translate(584,269)" d="m0 0h22l4 1v2l5 2 3 1 2 3v5l1 2-3 6h-26l-13 3-10 6-8 7h-1l1-7 5-8-1-5h-17l-7 7v-3l8-8 13-8 16-5z" fill="#A30E12"/>
<path transform="translate(649,317)" d="m0 0 7 1h3l2 12v10l-3 18-5 12-7 11-11 10-4 3h-2l2-6 5-8 1-8-1-4-5-1-1-4 7-8 4-8 4-14 1-10z" fill="#A40E12"/>
<path transform="translate(915,90)" d="m0 0 5 1v2l3 1-2 3h-2l-1 7-3 5-4 10-3 5-1 3-7 3-7-1-12-4 1-4 8-7 18-18z" fill="#890A0F"/>
<path transform="translate(1055,302)" d="m0 0 3 1 8 16 9 21v8l-3 5-2 2-7 1-5-5-5-8 1-17z" fill="#050506"/>
<path transform="translate(315,195)" d="m0 0 2 3h-2l-1 3-6-2 3-3z" fill="#CD121B"/>
</svg>
