<svg version="1.1" viewBox="0 0 1536 1536"  width="208" height="42" xmlns="http://www.w3.org/2000/svg">
<path transform="translate(0)" d="m0 0h1536v1536h-1536z"/>
<path transform="translate(866,706)" d="m0 0h68l2 7 12 81 1 5 4 1 2-21 8-71 1-2h67l1 17 2 142v47h-46l-1-1v-133l-4 1-8 64-8 68-1 1h-32l-2-8-14-104-3-19-3-2-1 132-1 1h-44l-1-1v-204z" fill="#fff"/>
<path transform="translate(485,701)" d="m0 0h20l15 3 12 5 10 6 8 8 5 8 4 13 1 7 1 17v87l-2 22-4 13-8 11-7 7-15 8-14 4-5 1h-18l-12-3-12-6-10-8-8-10-7-14-3-15-1-13v-79l1-23 2-10 5-12 7-10 8-7 14-7z" fill="#fff"/>
<path transform="translate(577,704)" d="m0 0h43l4 8 14 40 11 33 4 8h1l1-80 1-9h42l1 1v205h-46l-4-10-16-55-8-26h-3v90l-1 1h-44z" fill="#fff"/>
<path transform="translate(718,706)" d="m0 0h93v38h-40v44h33l1 1v36l-1 1h-34v48h40l1 1v36l-22 1h-70l-2-2v-149z" fill="#fff"/>
<path transform="translate(1266,705)" d="m0 0h54l1 1v37l-1 1h-39v41h34l1 1v35l-1 1h-33v51h38l1 1v37l-1 1h-90v-206z" fill="#fff"/>
<path transform="translate(1128,705)" d="m0 0h30l21 1v171h35v37h-86l-1-1v-207z" fill="#fff"/>
<path transform="translate(1054,705)" d="m0 0h49l2 3-1 205-1 1h-48l-2-2v-206z" fill="#fff"/>
<path transform="translate(257,679)" d="m0 0h82l1 1-1 11-9 44-1 7v12l4 4 9 3 34 5 14 3 2 1v3h-46l-49-1-50-3-10-2 1-18 3-20 4-18 5-16 5-14z" fill="#fa0c1d"/>
<path transform="translate(508,463)" d="m0 0h10l10 13 10 15 8 13v3l-6-1-16-4h-11l-20 5-12 4-11 5-16 8-14 8-14 10-13 11-10 9-6-1-18-8-26-12 1-4 7-7 13-10 9-7 15-10 17-10 19-9 20-8 18-6 22-5z" fill="#fa0c1d"/>
<path transform="translate(238,791)" d="m0 0 142 1 11 1v1l-59 12-20 4-10 4-6 7-1 5v12l3 21 7 35-1 10-6 8-5 3-11 1-10-3-7-7-7-12-8-21-5-16-4-21-3-25-1-19z" fill="#fff"/>
<path transform="translate(335,552)" d="m0 0h6l24 11 27 14 1 4-12 2-11 6-7 7-10 13-7 11-8 14-9 17v8l4 5v3h-43l-27-2-1-3 8-20 10-21 10-16 12-17 10-11 9-11 10-9z" fill="#fa0c1d"/>
<path transform="translate(740,464)" d="m0 0 4 1-7 6-7 8-14 12-8 8-8 7-15 14-12 11-8 7-12 11-63 63-4 7-1 21-3 11-8 10-8 6-12 3-9-2-13-6-5 1-9 7-10 9-8 5h-7l-4-3v-7l12-13 12-12 3-5 1-22 4-9 7-8 10-5 9-2h11l3 1h12l11-8 16-13 17-13 16-13 11-9 12-10 16-12 12-11 8-7 12-11 13-10 15-12z" fill="#fa0c1d"/>
<path transform="translate(560,520)" d="m0 0h34l23 3 16 4 3 2-1 3-13 3-50 3-22 3-20 5-21 7-25 12-15 9-13 10-13 11-8 7-15 14-7 7-11 14-11 15-9 11-3 1-2-5-1-17-2-11 4-9 8-10 13-15 14-13 11-9 17-12 13-8 23-12 25-10 24-7 20-4z" fill="#fa0c1d"/>
<path transform="translate(567,457)" d="m0 0h38l19 2 21 4 19 5 18 7 11 6 2 2-1 4-14 14-7 8-5 5-4-2-5-8-8-4-17-5-12-2-23-1-20 1-10 2-5 5-2 4-4-1-6-9-14-26-3-6 3-2z" fill="#fa0c1d"/>
<path transform="translate(352,911)" d="m0 0 2 1-15 14-7 8-5 10v7l4 9 7 11 12 14 11 11 11 9 7 7 3 6v7l-4 6-3 3-6 2h-8l-9-5-12-11-33-33-8-10-11-15-9-13 1-4 21-9 27-13 19-9z" fill="#fff"/>
<path transform="translate(454,977)" d="m0 0 2 1-9 27-6 25-1 4v16l4 6 10 6 12 5 19 5 35 7 5 4 1 2v6l-5 6-2 1h-14l-30-5-22-6-17-7-23-12-14-9-3-2 1-4 14-18 14-19 10-13 12-16 5-6z" fill="#fff"/>
<path transform="translate(724,500)" d="m0 0h6l16 8 16 11 14 11 14 12 12 12 10 13 11 17 14 25 4 10v2l-4-2-5-6v-2h-2l-9-12-9-10-4-3v-2l-4-2-10-9-16-12-15-10-18-10-16-8-24-9-3-1 1-4 14-14z" fill="#fa0c1d"/>
<path transform="translate(554,1029)" d="m0 0 2 1 8 32 4 12 5 8 3 2h32l29-6 27-7 5 1 2 3v7l-4 3-27 9-21 5-31 4h-44l-3-1 2-14 8-41z" fill="#fff"/>
<path transform="translate(493,736)" d="m0 0h10l4 6 1 4v110l-2 21-3 7-2 1h-6l-4-3-2-6-1-20v-102l2-13z" fill="#070202"/>
<path transform="translate(697,544)" d="m0 0 12 2 16 7 18 8 13 9 12 11 10 10 10 14 6 12-3 2h-2l2 7 6 11-1 2-10-13-10-14-9-10-6-7-15-11-19-10v-2l-24-8-5-5-4-7 1-7z" fill="#fa0c1d"/>
<path transform="translate(544,610)" d="m0 0h18l8 5 4 5 3 9v8l-4 8-5 6-12 6-9 1-10-5-8-9-2-5v-12l4-7 5-5z"/>
<path transform="translate(697,544)" d="m0 0 12 2 16 7 13 7-4 3-1 2-3 3 2 6-9-3-20-7-5-5-4-7 1-7z" fill="#FEFEFE"/>
<path transform="translate(740,464)" d="m0 0 4 1-7 6-7 8-8 7-4 1-4 4h-2l1-4 8-6 7-8z" fill="#683F40"/>
<path transform="translate(498,555)" d="m0 0m-3 1h3v2l-19 10-2-1 5-4 8-4z" fill="#fa0c1d"/>
<path transform="translate(616,526)" d="m0 0 9 1 9 3v1h-7l-11-4z" fill="#fff"/>
<path transform="translate(722,480)" d="m0 0 2 2h-2v2l-8 7h-2l1-4z" fill="#fff"/>
</svg>
